<svg id="Layer_2" data-name="Layer 2" xmlns="http://www.w3.org/2000/svg" xmlns:xlink="http://www.w3.org/1999/xlink" viewBox="0 0 727.67 327.67"><defs><style>.cls-1{fill:#384879;stroke:#384879;}.cls-1,.cls-11,.cls-12,.cls-13,.cls-14,.cls-15,.cls-16,.cls-17,.cls-19{stroke-miterlimit:10;}.cls-2{fill:#7ce700;}.cls-3{fill:url(#New_Gradient_Swatch_1);}.cls-4{fill:url(#New_Gradient_Swatch_1-2);}.cls-5{fill:url(#New_Gradient_Swatch_1-3);}.cls-6{fill:url(#linear-gradient);}.cls-7{fill:url(#linear-gradient-2);}.cls-8{fill:url(#New_Gradient_Swatch_1-4);}.cls-9{fill:url(#linear-gradient-3);}.cls-10{fill:url(#linear-gradient-4);}.cls-11{fill:#3f5bc6;}.cls-11,.cls-12,.cls-13,.cls-14,.cls-15,.cls-16,.cls-17,.cls-19{stroke:#000;stroke-width:0.25px;}.cls-12{fill:#223064;}.cls-13{fill:#34439b;}.cls-14{fill:#384cac;}.cls-15{fill:url(#linear-gradient-5);}.cls-16{fill:#292e65;}.cls-17{fill:none;}.cls-18{fill:#781403;}.cls-19{fill:url(#linear-gradient-6);}</style><linearGradient id="New_Gradient_Swatch_1" x1="164.57" y1="184.34" x2="164.57" y2="19.98" gradientUnits="userSpaceOnUse"><stop offset="0" stop-color="#cacbd9"/><stop offset="0.03" stop-color="#bdc0dc"/><stop offset="0.13" stop-color="#979fe6"/><stop offset="0.23" stop-color="#7c87ec"/><stop offset="0.31" stop-color="#6c79f1"/><stop offset="0.38" stop-color="#6674f2"/><stop offset="0.46" stop-color="#6270ea"/><stop offset="0.59" stop-color="#5865d3"/><stop offset="0.75" stop-color="#4852ad"/><stop offset="0.93" stop-color="#32397a"/><stop offset="1" stop-color="#292e65"/></linearGradient><linearGradient id="New_Gradient_Swatch_1-2" x1="165.29" y1="277.27" x2="165.29" y2="157.65" xlink:href="#New_Gradient_Swatch_1"/><linearGradient id="New_Gradient_Swatch_1-3" x1="190.33" y1="307.98" x2="190.33" y2="196.03" xlink:href="#New_Gradient_Swatch_1"/><linearGradient id="linear-gradient" x1="444.9" y1="190.13" x2="444.9" y2="167.32" gradientUnits="userSpaceOnUse"><stop offset="0.03" stop-color="#6674f2"/><stop offset="0.11" stop-color="#5e6bdf"/><stop offset="0.31" stop-color="#4b55b4"/><stop offset="0.5" stop-color="#3c4492"/><stop offset="0.69" stop-color="#323879"/><stop offset="0.85" stop-color="#2b316a"/><stop offset="0.99" stop-color="#292e65"/></linearGradient><linearGradient id="linear-gradient-2" x1="613.74" y1="196.85" x2="613.74" y2="171.96" xlink:href="#linear-gradient"/><linearGradient id="New_Gradient_Swatch_1-4" x1="564.57" y1="183.37" x2="564.57" y2="19.98" xlink:href="#New_Gradient_Swatch_1"/><linearGradient id="linear-gradient-3" x1="663.69" y1="229.53" x2="663.69" y2="167.7" gradientUnits="userSpaceOnUse"><stop offset="0" stop-color="#cacbd9"/><stop offset="0.02" stop-color="#bdc0dc"/><stop offset="0.08" stop-color="#979fe6"/><stop offset="0.14" stop-color="#7c87ec"/><stop offset="0.2" stop-color="#6c79f1"/><stop offset="0.24" stop-color="#6674f2"/><stop offset="0.41" stop-color="#515bc0"/><stop offset="0.57" stop-color="#3f4899"/><stop offset="0.72" stop-color="#333a7c"/><stop offset="0.84" stop-color="#2c316b"/><stop offset="0.94" stop-color="#292e65"/></linearGradient><linearGradient id="linear-gradient-4" x1="557.88" y1="307.98" x2="557.88" y2="174.05" gradientUnits="userSpaceOnUse"><stop offset="0" stop-color="#cacbd9"/><stop offset="0.02" stop-color="#bdc0dc"/><stop offset="0.09" stop-color="#979fe6"/><stop offset="0.16" stop-color="#7c87ec"/><stop offset="0.22" stop-color="#6c79f1"/><stop offset="0.26" stop-color="#6674f2"/><stop offset="0.39" stop-color="#5a66d5"/><stop offset="0.68" stop-color="#3f4899"/><stop offset="0.89" stop-color="#2f3573"/><stop offset="1" stop-color="#292e65"/></linearGradient><linearGradient id="linear-gradient-5" x1="557.03" y1="193.61" x2="557.03" y2="142.76" gradientUnits="userSpaceOnUse"><stop offset="0.56" stop-color="#36469f"/><stop offset="0.71" stop-color="#35459c"/><stop offset="0.81" stop-color="#334193"/><stop offset="0.89" stop-color="#303b84"/><stop offset="0.97" stop-color="#2b326f"/><stop offset="1" stop-color="#292e65"/></linearGradient><linearGradient id="linear-gradient-6" x1="557.51" y1="225.23" x2="557.51" y2="155.31" gradientUnits="userSpaceOnUse"><stop offset="0" stop-color="#292e65"/><stop offset="0" stop-color="#36469f"/></linearGradient></defs><title>BinocularLogo</title><path id="Frame" class="cls-1" d="M564.57.65a163.39,163.39,0,0,0-152,103.51,200.12,200.12,0,0,0-95.71.6A163.35,163.35,0,1,0,164.57,327.31c1.64,0,3.28,0,4.91-.08a163.47,163.47,0,0,0,154.28-200,176.31,176.31,0,0,1,81.76-.62,163.2,163.2,0,0,0,156.8,200.62l2.25,0a163.33,163.33,0,0,0,0-326.66ZM308.57,164a143.82,143.82,0,0,1-141,144c-1,0-2,0-3,0A144,144,0,1,1,298.29,110.46,142.14,142.14,0,0,1,305.21,133,144.65,144.65,0,0,1,308.57,164Zm256,144h-.29a139.42,139.42,0,1,1,.29,0Z" transform="translate(-0.74 -0.15)"/><g id="LeftEye"><polygon class="cls-2" points="21.27 184.2 21.27 184.2 21.27 184.2 21.27 184.2"/><path class="cls-3" d="M305.21,133a142.14,142.14,0,0,0-6.92-22.51A144,144,0,0,0,22,184.34c.1,0,36.59-16.7,58.89-17.69,20.58-.93,44.53,5.22,55.22,9.58.91.38,1.74.74,2.45,1.08,0,0,.91-.57,2.57-1.43a70.55,70.55,0,0,1,30.1-7.9,69,69,0,0,1,24.13,4,53.41,53.41,0,0,1,7.87,3.43s4.92-2.1,12.38-4.87c14.25-5.27,37.76-12.93,53.95-12.93,24.67,0,39,6.33,39,6.33A144.65,144.65,0,0,0,305.21,133Z" transform="translate(-0.74 -0.15)"/><path class="cls-4" d="M269.57,157.65c-16.19,0-39.7,7.66-53.95,12.93-7.46,2.77-12.38,4.87-12.38,4.87a53.41,53.41,0,0,0-7.87-3.43,69,69,0,0,0-24.13-4,70.55,70.55,0,0,0-30.1,7.9c-1.66.86-2.57,1.43-2.57,1.43-.71-.34-1.54-.7-2.45-1.08-10.69-4.36-34.64-10.51-55.22-9.58-22.3,1-58.79,17.65-58.89,17.69h0a143.83,143.83,0,0,0,53.66,92.93S181.41,206.76,305,196A144.55,144.55,0,0,0,308.57,164S294.24,157.65,269.57,157.65Z" transform="translate(-0.74 -0.15)"/><path class="cls-5" d="M75.67,277.27A143.42,143.42,0,0,0,164.57,308c1,0,2,0,3,0A143.82,143.82,0,0,0,305,196C181.41,206.76,75.67,277.27,75.67,277.27Z" transform="translate(-0.74 -0.15)"/></g><g id="RightEye"><path class="cls-6" d="M420.61,167.32a145.11,145.11,0,0,0,2.33,22.81,366,366,0,0,1,46.24-12.07C450,169.06,420.61,167.32,420.61,167.32Z" transform="translate(-0.74 -0.15)"/><path class="cls-7" d="M653.9,180.72c-13.26-5.18-26-9.1-33.66-8.74s-25.86,5.65-46.65,11.39a228,228,0,0,1,45.27,13.48A251.21,251.21,0,0,1,653.9,180.72Z" transform="translate(-0.74 -0.15)"/><path class="cls-8" d="M564.57,20a143.86,143.86,0,0,0-144,144c0,1.11,0,2.23,0,3.34,0,0,29.37,1.74,48.57,10.74,22.79-4.3,49-6.54,66.06.59,7.22,1.08,20.52,1.39,38.35,4.72,20.79-5.74,39.08-11,46.65-11.39s20.4,3.56,33.66,8.74c31.59-11.71,54.62-13,54.62-13,0-1.24.05-2.48.05-3.72A144,144,0,0,0,564.57,20Z" transform="translate(-0.74 -0.15)"/><path class="cls-9" d="M653.9,180.72a251.21,251.21,0,0,0-35,16.13q4.29,1.77,8.71,3.8c45,20.66,65.25,28.88,65.25,28.88a143.12,143.12,0,0,0,15.7-61.83S685.49,169,653.9,180.72Z" transform="translate(-0.74 -0.15)"/><path class="cls-10" d="M627.57,200.65q-4.43-2-8.71-3.8a228,228,0,0,0-45.27-13.48c-17.83-3.33-31.13-3.64-38.35-4.72-17.1-7.13-43.27-4.89-66.06-.59a366,366,0,0,0-46.24,12.07A143.89,143.89,0,0,0,564.28,308h.29a144.16,144.16,0,0,0,128.25-78.45S672.57,221.31,627.57,200.65Z" transform="translate(-0.74 -0.15)"/></g><g id="Person"><path class="cls-11" d="M542.46,244l-2,8s-3.76,1.17-5.26-1v-6.22" transform="translate(-0.74 -0.15)"/><path class="cls-11" d="M574.4,236.15s1.67,6.8,2.34,7.82,6.83.84,7-1.66-2.17-8.66-2.17-8.66" transform="translate(-0.74 -0.15)"/><polyline class="cls-12" points="543.92 149.17 543.92 134.1 561.76 132.33 561.76 145.79"/><path class="cls-11" d="M535.24,224.48s-1.5,19-1,19.83,8.83,1.84,10.33-2.83,2.33-17,2.33-17Z" transform="translate(-0.74 -0.15)"/><path class="cls-11" d="M568.74,218.86s3.66,14.95,4.5,17.45,7.83-1.33,8.33-2.66-2.69-18.9-2.69-18.9" transform="translate(-0.74 -0.15)"/><path class="cls-13" d="M584.81,196.63s3.09,0,2.26-8.48h-3.32" transform="translate(-0.74 -0.15)"/><path class="cls-14" d="M530.73,193.61h-3.64s-.14,5.61,3.06,7.68" transform="translate(-0.74 -0.15)"/><path class="cls-15" d="M527.09,193.61c-.62-2.32,1-46.57,17.94-48.51,12.48,1.3,12.21.3,17-1.79s22.92-.5,25,44.84" transform="translate(-0.74 -0.15)"/><path class="cls-16" d="M561.15,125" transform="translate(-0.74 -0.15)"/><path class="cls-17" d="M552.28,140.1c-.06,1.38,1.56,4.19,2.62.38" transform="translate(-0.74 -0.15)"/><path class="cls-18" d="M556.33,134.57a2.7,2.7,0,0,0-2.4,1.88,2.88,2.88,0,0,0-.78,0,3.43,3.43,0,0,0-.8.15,2.71,2.71,0,1,0-2.28,3.85h.08l.39-.06a2.71,2.71,0,0,0,2.05-2.81,2.36,2.36,0,0,0-.11-.6,2.71,2.71,0,0,1,.7-.13,2.44,2.44,0,0,1,.66,0,2.56,2.56,0,0,0,0,.62,2.71,2.71,0,0,0,2.45,2.52h.43a2.71,2.71,0,0,0-.35-5.4Zm-4.64,3a1.81,1.81,0,0,1-1.35,1.86l-.29.05h0a1.8,1.8,0,1,1,1.5-2.57,1.36,1.36,0,0,1,.11.28A2.32,2.32,0,0,1,551.69,137.59Zm4.93,1.47h-.29a1.81,1.81,0,0,1-1.62-1.67,1.76,1.76,0,0,1,0-.4c0-.1,0-.19.07-.29a1.8,1.8,0,1,1,1.82,2.36Z" transform="translate(-0.74 -0.15)"/><path class="cls-19" d="M574.74,155.31c1.66,2,3.33,7.5,3.83,8.67s8.83,41.67,7.17,45.17-6.84,6.83-28.67,13.5-28-1.67-28-1.67,2-55.17,8-62.17" transform="translate(-0.74 -0.15)"/><path class="cls-16" d="M547.53,126s-7.19,2.25-6.75,5.56,7.11,2.94,13.62,2.69,13.82-1.81,13.63-5.56-6.88-4.13-6.88-4.13.07-3.31-.5-3.93-11.81-.25-12.25.31S547.53,126,547.53,126Z" transform="translate(-0.74 -0.15)"/><path class="cls-16" d="M561.15,125c1,3.81.38,6.62-6.31,6.62s-7.94-1.18-7.5-5.18" transform="translate(-0.74 -0.15)"/></g></svg>