<?xml version="1.0" standalone="no"?>
<!DOCTYPE svg PUBLIC "-//W3C//DTD SVG 20010904//EN"
 "http://www.w3.org/TR/2001/REC-SVG-20010904/DTD/svg10.dtd">
<svg version="1.0" xmlns="http://www.w3.org/2000/svg"
 width="1517.000000pt" height="1517.000000pt" viewBox="0 0 1517.000000 1517.000000"
 preserveAspectRatio="xMidYMid meet">
<metadata>
Created by potrace 1.11, written by Peter Selinger 2001-2013
</metadata>
<g transform="translate(0.000000,1517.000000) scale(0.100000,-0.100000)"
fill="#000000" stroke="none">
<path d="M3337 11004 c-1 -1 -56 -5 -122 -8 -66 -4 -131 -8 -145 -10 -14 -3
-50 -7 -80 -10 -61 -7 -79 -10 -195 -31 -113 -21 -109 -20 -224 -49 -164 -42
-381 -115 -517 -176 -81 -36 -301 -148 -344 -175 -22 -14 -42 -25 -44 -25 -10
0 -319 -211 -336 -230 -3 -3 -27 -23 -55 -45 -132 -105 -317 -282 -414 -396
-16 -19 -41 -47 -56 -64 -48 -54 -191 -248 -257 -350 -215 -330 -378 -722
-464 -1115 -16 -75 -43 -233 -49 -285 -4 -33 -8 -71 -10 -85 -22 -131 -22
-611 -1 -717 3 -12 7 -48 11 -80 16 -157 78 -435 138 -623 141 -437 396 -876
712 -1226 71 -78 228 -233 290 -285 22 -19 45 -39 50 -45 23 -26 230 -178 336
-247 193 -125 377 -221 581 -303 106 -42 338 -120 384 -128 13 -3 27 -7 31 -9
8 -5 101 -26 213 -48 61 -13 87 -17 145 -25 28 -3 59 -8 70 -10 10 -2 51 -6
90 -10 38 -3 90 -8 115 -10 63 -7 381 -6 460 1 170 15 302 31 376 46 28 5 63
12 79 15 15 3 55 12 89 20 34 8 68 16 76 18 71 17 246 70 285 86 11 4 74 29
140 55 315 125 626 310 910 544 180 148 464 453 591 636 11 17 36 53 55 80
155 224 304 526 402 815 42 123 98 330 111 405 2 17 9 53 14 80 6 28 13 74 17
104 4 30 8 63 10 73 2 10 7 51 10 91 3 40 8 92 10 117 5 57 6 393 1 440 -2 19
-7 70 -11 113 -3 43 -8 86 -10 96 -2 10 -6 42 -10 72 -3 30 -8 61 -10 69 -2 8
-7 31 -10 50 -3 19 -10 57 -16 83 -6 26 -9 50 -6 53 7 7 281 61 352 69 33 4
69 9 79 11 100 19 624 26 766 11 138 -15 335 -46 431 -68 l46 -10 -13 -57 c-7
-31 -15 -70 -17 -87 -3 -16 -10 -59 -16 -95 -6 -36 -12 -83 -15 -105 -2 -22
-8 -69 -12 -105 -5 -36 -8 -177 -8 -315 0 -229 4 -325 19 -427 3 -21 7 -55 10
-75 3 -21 7 -45 10 -53 2 -8 6 -33 9 -55 11 -89 59 -288 107 -435 129 -401
354 -814 608 -1120 90 -107 117 -137 251 -270 323 -322 708 -574 1135 -743
121 -48 325 -115 397 -132 111 -24 259 -55 288 -60 60 -9 114 -17 133 -21 9
-1 54 -6 100 -9 45 -4 93 -9 107 -11 37 -6 394 -6 475 1 91 7 164 15 195 20
14 2 45 7 70 10 65 8 192 33 290 56 47 12 92 22 100 24 38 8 285 91 375 127
128 51 365 169 478 239 49 30 96 59 106 64 25 15 184 127 197 139 7 6 24 20
40 31 16 11 73 59 129 106 527 453 905 1056 1079 1724 41 157 61 263 91 485
22 162 22 640 1 758 -2 9 -7 42 -11 72 -6 51 -38 232 -51 290 -3 14 -7 36 -10
50 -52 253 -214 659 -367 920 -52 88 -156 251 -167 260 -3 3 -22 28 -42 57
-20 28 -43 60 -52 70 -481 597 -1048 979 -1764 1187 -120 35 -324 79 -421 91
-30 4 -62 8 -71 10 -9 2 -53 6 -96 10 -43 4 -95 9 -114 11 -45 6 -425 6 -465
0 -16 -2 -65 -7 -107 -11 -42 -3 -85 -8 -96 -10 -10 -2 -42 -6 -70 -10 -42 -5
-248 -46 -302 -59 -625 -158 -1149 -454 -1590 -896 -136 -136 -187 -191 -240
-260 -19 -25 -37 -47 -40 -50 -17 -15 -105 -138 -165 -230 -38 -58 -77 -117
-87 -132 -29 -43 -161 -304 -201 -398 -27 -63 -41 -85 -54 -84 -20 2 -81 13
-103 19 -8 2 -28 7 -45 9 -16 3 -70 12 -120 20 -257 43 -368 51 -695 51 -234
-1 -364 -6 -465 -20 -185 -26 -272 -41 -394 -66 -79 -17 -144 -29 -145 -27 -1
2 -17 39 -36 83 -230 545 -611 1029 -1100 1401 -227 172 -498 323 -785 437
-125 50 -369 129 -435 141 -14 2 -45 9 -70 15 -79 20 -227 46 -315 56 -27 3
-66 8 -85 10 -68 9 -427 24 -433 19z"/>
</g>
</svg>
